# xmcd
#
# Track frame offsets:
#	150
#	13407
#	30017
#	45825
#	60545
#	75892
#	91647
#	107605
#	125585
#	146560
#
# Disc length: 2452 seconds
#
# Revision: 0
# Processed by: cddbd v1.5.1PL0 Copyright (c) Steve Scherf et al.
# Submitted via: dBpowerAMP V4.0
#
DISCID=6709920a
DTITLE=Mark Nesler - Up All night
DYEAR=2003
DGENRE=Country
TTITLE0=Ain't what is used to be
TTITLE1=Friday at the latest
TTITLE2=When I'm getting it right
TTITLE3=How high did you go
TTITLE4=Up all nigt
TTITLE5=Where we left off
TTITLE6=You know what I mean
TTITLE7=Pretty thing
TTITLE8=A little more like grey
TTITLE9=How crazy is that
EXTD=The Album is by Mark Nesler and is called "Up All Night"
EXTT0=
EXTT1=
EXTT2=
EXTT3=
EXTT4=
EXTT5=
EXTT6=
EXTT7=
EXTT8=
EXTT9=
PLAYORDER=
